<svg id="Layer_1" xmlns="http://www.w3.org/2000/svg" viewBox="0 0 87 112.3">
  <style>
    .st0{fill-rule:evenodd;clip-rule:evenodd;} .st1{fill-rule:evenodd;clip-rule:evenodd;fill:#FFFFFF;}
  </style>
  <path class="st0" d="M54.1 23.1h-3.2v-.6c.9 0 1.4-.2 1-.9-.6-1.2 2-1.1 2.4-.9.6.5.2 1.8-.2 2.4zM49.7 23.9h3.9c-.4.7-1.6 2.9-2.4 2.9-.4-.5-1.4-1.9-1.5-2.9z"/>
  <path class="st1" d="M62.3 19.2c-.2.1-.4.2-.6.2-1.2 1.7-.5 1.5-2.7 3 0 2.9.1 3.2.8 5.8v.2c0 .1-.1.1-.1.1-.5.1-1.3.3-1.7.4 0 .1.2 1.7 0 3-.4 1.9-5 6.1-6 6.4-1.5.3-3.2-1-5.9-2.2-.7-.3-3.2-1.9-4.5-2.4-1.1-.4-2.1 2.2-.8 2.9.6.3 1.6.8 1.9 1.6.9 2.4-.1 11.6-2 13.4-.9 0-1.7-.8-2.3-.6-1.2.7-.4 4.3 0 4.9 7.3 7.5 6.5 13.1 9.6 17.3 1.4 0 .5 1.5 1.6 3.3.3.9-.1 2.4-.2 3v2.3c-.1.2-.2.5-.2.7v2c-.2 1-.5 2.3-.7 3.2-.4 1.9 1.2 3.4.2 5.2 0 1.1 0 .9-.7 1.8 0 1.7-.4 5.4 0 6.7.3.9 3.5 4.7 4.4 5.1 2 .9 4.9.7 3.9 3.8-5.8 1.8-9.4-1-12.5-1l-.1.5c-2 0-3.5-.5-4-.6 0-.5.6-4.6.9-5.3.2-.3.4-.7.7-1 .2-.7-.2-5.8-.3-7.2-1.2-.9-1.5-3.7-1.5-5.2-.4-1.2-.4-2.6-.4-4.1 0-.7-.5-1.8-.2-2.7.2-.6.9-.9 1-1.4v-1.7c.3-1.8.2-2.6-.9-3.7-2.7 0-3.1.2-4.5-2.1-.5-.7-4.2-6.7-4.6-6.8-3.1-1.4-2.5-.8-3.9-3.3-.1 0-.9.3-1.6 1.4-1.1 1.7-3.1 7.1-3.7 9-.3 1.1 0 2.2-.5 3.1-.3.6-1.5.8-1.7 1.3-1.1 2-.3 1.8-2.4 3.2-.4.5-.4 1.2-.7 1.8-.2.2-.3.4-.5.7-.4.8.4 2.1.2 2.6-.4 1.2-.8 2.5-1.3 3.6-1 2.3-.8 5.3-1.8 6.7-.5.7-1.7 0-2.6.6-.1.5-1.5 3.7-1.8 4.6v5.2c.3.9 1 1.7.8 2.8-.2 1.2-4.3 1.2-6.5.8-1.5-.2-1.9-1.3-1.9-2.6 0-1.5 3-11.2 2.9-11.8-2.3-2.6.6-5.2 1.5-7.6.4-1.2.2-2.8.6-3.9.8-1.5 1.6-2.9 2.4-4.4 1.5-1.4.8-1.5 1.6-2.7.7-1.1 1.5-1.8 1-3.5-1-3.3 1.1-8 1.3-11.5-.4-.4-1.6-.3-1.8-1.3-.3-2.2.8-6 1.5-6.3.3-.2.7 0 .9-.2 0-1.6-1.6-10.6-.4-11.1.8-.3 2.5-.4 2.8-.6 0-.4-.3-1.2-.6-1.2-.5-.1-1.6-.3-2.5-.5-2.7-.6-.2-11.2-.2-11.3.7-1 4.2.3 4.6-1.3 1.1-1.5-.9-7.1 3-14.1 1.3-2.3 3.9-4.7 6.8-3.7 1 .3.4 1.8 2.1.2 0-.9-.4-1.6-.6-2.4C24.2 1.8 34-2.9 40.9 2c.8.3 1.2.5 1.8.9.4 2 2.3 5.4.4 7.7-.8.2-1.8.6-2.4 1 0 .8.1 1.5.2 2 .1.4.4.6-.3.9-.1 0 0 .3 0 .4 1.6.3 3.3-.3 4.4-.7h1.3v-1.6h.6v-1.3h.6v2.2h1.6v.7h23.7v1.2h1v-4.5h.9v3.7h2v2.1H83V16h1v.3h3V18h-3v.3h-1v-.6h-6.3v.6h-2.8v-.4h-1.2v1.3H62.3z"/>
</svg>
