<?xml version="1.0" encoding="utf-8"?>
<!-- Generator: Adobe Illustrator 19.0.0, SVG Export Plug-In . SVG Version: 6.00 Build 0)  -->
<svg version="1.1" id="Layer_1" xmlns="http://www.w3.org/2000/svg" xmlns:xlink="http://www.w3.org/1999/xlink" x="0px" y="0px"
	 viewBox="-41 81.3 216.7 39.8" style="enable-background:new -41 81.3 216.7 39.8;" xml:space="preserve">
<style type="text/css">
	.st0{fill:#FFFFFF;}
</style>
<path class="st0" d="M167.1,81.3h-26.2c-4.7,0-8.6,3.9-8.6,8.6v22.5c0,4.7,3.9,8.6,8.6,8.6h26.2c4.7,0,8.6-3.9,8.6-8.6V89.9
	C175.7,85.2,171.8,81.3,167.1,81.3z M166.9,112.4H141V89.9h25.9L166.9,112.4L166.9,112.4z M87.9,89.9h36c0-4.7-3.9-8.6-8.6-8.6H87.6
	c-4.7,0-8.6,3.9-8.6,8.6v22.5c0,4.7,3.9,8.6,8.6,8.6h27.7c4.7,0,8.6-3.9,8.6-8.6V97.6H94.7c0,3.7,3,6.6,6.6,6.6h14.4v8.2H87.9V89.9z
	 M19.4,89.9h34.4c0-4.7-3.8-8.6-8.6-8.6H18.6c-4.7,0-8.6,3.9-8.6,8.6v7c0,4.7,3.9,8.6,8.6,8.6h26.7v7H10c0,4.7,3.9,8.6,8.6,8.6h27.5
	c4.7,0,8.6-3.9,8.6-8.6v-7c0-4.7-3.9-8.6-8.6-8.6H19.4C19.4,96.9,19.4,89.9,19.4,89.9z M-30.1,89.9H2.4c0-4.7-3.9-8.6-8.6-8.6h-26.2
	c-4.7,0-8.6,3.9-8.6,8.6v22.5c0,4.7,3.9,8.6,8.6,8.6h26.2c4.7,0,8.6-3.9,8.6-8.6h-32.5V89.9z"/>
<circle class="st0" cx="66.9" cy="92.9" r="3.3"/>
<circle class="st0" cx="66.9" cy="109.5" r="3.3"/>
</svg>
