<svg id="svg3960" xmlns="http://www.w3.org/2000/svg" viewBox="-179 -20 600 600">
  <style>
    .st0{fill:#FFFFFF;}
  </style>
  <path id="path3961" class="st0" d="M117.7-20C50.9-19.6-15.1 4.2-66.9 46.1l56.7 65.8c47.8-37.7 112.3-53.1 172-41.2 32.8 6.3 64.1 20.7 90.5 41.2L309 46.1C255.2 2.8 186.8-21 117.7-20z"/>
  <path id="path4052" class="st0" d="M-85.4 62.3c-59.7 56.1-94.7 137.6-93.6 219.9 0 85.4 39 169.2 103.7 224.7 59.8 52.3 141.1 78.9 220.5 72.2 86-6.4 167.6-52.3 218.1-122.1 49.1-66.3 68.4-153.8 52.1-234.9-12-62.1-44.5-119.6-90.8-162.4l-56.7 65.8c45.7 43 70.6 106.6 65.9 169.2-2.1 31-11.1 61.7-26.3 89L191.9 272l-58.3-125.6-.1 190.2 116.7 112.9c-52 40.4-123.4 53.8-186.6 35.9-25.7-7.2-50.1-19.2-71.3-35.4l117.5-113.4c-.2-61.8.7-128.6 0-190.4L51.5 272-64.9 384.4c-35.5-62-36.4-142.2-2.2-204.9 10.7-20.1 24.8-38.4 41.3-54.2l-56.7-65.8c-1 .9-1.9 1.8-2.9 2.8z"/>
</svg>
