<svg id="Layer_1" xmlns="http://www.w3.org/2000/svg" viewBox="0 0 236 34.3">
  <style>
    .st0{fill-rule:evenodd;clip-rule:evenodd;fill:#FFFFFF;} .st1{fill-rule:evenodd;clip-rule:evenodd;fill:#F58220;}
  </style>
  <path class="st0" d="M112 26.8h4.3l4.6-9.7 4.3 9.7h4.5c1.4-3 3.4-6.5 4.6-9.5l4.1-9.9H132l-4 9.8-4.5-9.8h-4.4l-4.5 9.6-3.1-7.2c-.5-1.2-.5-1.5-1-2.4h-6.9l8.4 19.4zM229.5 7.4h6.5V27h-6.5v-7.4h-12.2V27h-6.5V7.4h6.5v7h12.2v-7zm-78.1 0h-5.1l-13 19.5h7.7l7.9-12.3 8 12.5h7.2L151.4 7.4zm7.7 5.2h8.7V27h6.5V12.6h6.7c1.2-1.7 2.4-3.4 3.6-5.2H159v5.2h.1zM37.7 27h4.8l13-19.4h-7.7l-7.3 11.8-7.7-11.7h-7.2L37.7 27zM55 12.4V27h20.3v-5.1h-14v-2.6H71v-4.1h-9.7v-2.6h14V7.7H58.2L55 12.4zm128.5 1.8v9.1c0 1.3 1.6 3.8 4.2 3.8h13.6c4.1 0 6.5-1.1 6.5-5.2v-2.2h-6.4V22h-11.2v-9.3h11.2v2h6.5v-2.4c0-2.1-1.5-4.8-5.4-4.8h-14.6c-.8 1.2-4.4 5.8-4.4 6.7zM78.4 27h6.9V12.9h10.5v3h-7.4v3.8l8 7.3h8.7l-7.9-7.4c4.3.1 5-2.1 5-4v-4.1c0-2.7-2.1-3.9-4.8-3.9h-19V27zM0 12.9v9.9c0 1.7 1 2.8 2.6 3.9L6.9 22v-9.1H19V22H9.7l-4.3 5h16.2c1.2 0 4.2-1.6 4.2-4.2v-10c-.9-1.5-2.5-3.8-3.3-5.1H5.3C1.8 7.7 0 9.5 0 12.9z"/>
  <path class="st1" d="M35.5 7.3h10.4L40.7 0l-5.2 7.3zM154.1 27h-10.4l5.2 7.3 5.2-7.3z"/>
</svg>
