<svg id="Layer_1" xmlns="http://www.w3.org/2000/svg" viewBox="0 0 182 34.1">
  <style>
    .st0{fill:#FFFFFF;stroke:#00B0ED;stroke-miterlimit:10;} .st1{fill:#FFFFFF;}
  </style>
  <g id="XMLID_118_">
    <path id="XMLID_139_" class="st0" d="M7.5 15.7h7.2l3.5 12.9 3.5-12.9h7.2v17.2h-4.5V19.2l-3.8 13.7h-5.3l-3.7-13.7v13.7h-4V15.7z"/>
    <path id="XMLID_136_" class="st0" d="M34.9 15.7H42l4.5 17.2h-4.9l-.8-3.4h-5.2l-.8 3.4h-4.5l4.6-17.2zm1.5 10.4H40l-1.7-7.6-1.9 7.6z"/>
    <path id="XMLID_134_" class="st0" d="M47.9 15.7h4.8l5.5 10.1V15.7h4.2v17.2h-4.8l-5.4-10.3v10.3H48V15.7z"/>
    <path id="XMLID_131_" class="st0" d="M68.4 15.7h7.1L80 32.9h-4.9l-.8-3.4h-5.2l-.8 3.4h-4.5l4.6-17.2zM70 26.1h3.5l-1.7-7.6-1.8 7.6z"/>
    <path id="XMLID_129_" class="st0" d="M81 30.3v-12l2.6-2.6h9.7l2.5 2.5v3H91v-1.5l-.5-.5h-3.9l-.9.8v8.8l.8.8h3.9l.5-.5v-2.4h-3.5v-3.4h8.2v7.2L93.1 33h-9.7L81 30.3z"/>
    <path id="XMLID_127_" class="st0" d="M98.1 15.7h12.1v3.6h-7.4v3.1h6.7V26h-6.7v3.4h7.4V33H98.1V15.7z"/>
    <path id="XMLID_125_" class="st0" d="M112.7 15.7h7.2l3.5 12.9 3.5-12.9h7.2v17.2h-4.5V19.2l-3.8 13.7h-5.3l-3.7-13.7v13.7h-4V15.7z"/>
    <path id="XMLID_123_" class="st0" d="M136.8 15.7h12.1v3.6h-7.4v3.1h6.7V26h-6.7v3.4h7.4V33h-12.2V15.7z"/>
    <path id="XMLID_121_" class="st0" d="M151.3 15.7h4.8l5.5 10.1V15.7h4.2v17.2H161l-5.4-10.3v10.3h-4.2V15.7z"/>
    <path id="XMLID_119_" class="st0" d="M172.1 19.5h-4.6v-3.8h14v3.8h-4.6v13.4h-4.7V19.5z"/>
  </g>
  <g id="XMLID_93_">
    <path id="XMLID_115_" class="st1" d="M.5 12.5V2.3L2.8 0h8.1l2.3 2.3v10.2l-2.3 2.3H2.8L.5 12.5zm7.9-.7l.7-.7V3.7L8.4 3H5.3l-.7.7v7.4l.7.7h3.1z"/>
    <path id="XMLID_113_" class="st1" d="M14.2 0H18l1.6 11 2.1-11H27l2.1 11 1.6-11h3.4l-2.7 14.8h-5L24.2 3.6l-2.1 11.1H17L14.2 0z"/>
    <path id="XMLID_111_" class="st1" d="M35.3 0h4.1l4.7 8.7V0h3.6v14.8h-4.2L38.9 6v8.8h-3.6V0z"/>
    <path id="XMLID_109_" class="st1" d="M50.1 0h10.4v3.1h-6.3v2.7h5.7v3.1h-5.7v2.9h6.4v3.1H50.1V0z"/>
    <path id="XMLID_106_" class="st1" d="M62.6 0H73l2.2 2.1v4.7l-1.9 1.9 2.2 6.1h-4.2l-1.9-5.5h-2.8v5.5h-4.1V0zm7.9 6.5l.6-.6V3.3l-.6-.6h-3.9v3.8h3.9z"/>
    <path id="XMLID_104_" class="st1" d="M76.7 12.7v-2.5h4.1v1.2l.5.5h3.4l.4-.4V9.3l-.4-.3h-6.1l-1.8-1.8v-5L78.9 0H87l2 2.1v2.5h-4V3.4l-.5-.5h-3.3l-.4.5v2.1l.3.3h6.1L89 7.6v5.1l-2.1 2.1h-8.2l-2-2.1z"/>
    <path id="XMLID_102_" class="st1" d="M91.1 0h4.1v5.8h4.3V0h4.1v14.8h-4.1V9.4h-4.3v5.4h-4.1V0z"/>
    <path id="XMLID_100_" class="st1" d="M105.3 12h2.4V2.8h-2.4V0h9v2.8h-2.5V12h2.5v2.8h-9V12z"/>
    <path id="XMLID_97_" class="st1" d="M116.2 0h10.2l2.3 2.3v5.5l-2.3 2.3h-6.2v4.8h-4.1V0zm7.8 7.2l.6-.6V3.4l-.6-.6h-3.8v4.4h3.8z"/>
    <path id="XMLID_94_" class="st1" d="M135.2 12.7V9l1.7-1.7-1.7-1.7V2.1l2-2.1h8.1l2.1 2.1v2.1h-4.1v-.9l-.3-.5h-3.2l-.5.5v2.1l.5.5h9v2.8h-1.3v4l-2.1 2.1h-8.1l-2.1-2.1zm7.7-.7l.5-.5V8.7h-3.6l-.5.5v2.2l.5.5h3.1z"/>
  </g>
</svg>
