<?xml version="1.0" encoding="utf-8"?>
<!-- Generator: Adobe Illustrator 19.0.0, SVG Export Plug-In . SVG Version: 6.00 Build 0)  -->
<svg version="1.1" id="Layer_1" xmlns="http://www.w3.org/2000/svg" xmlns:xlink="http://www.w3.org/1999/xlink" x="0px" y="0px"
	 viewBox="227 -245.8 753.3 691.8" style="enable-background:new 227 -245.8 753.3 691.8;" xml:space="preserve">
<style type="text/css">
	.st0{fill:#181717;}
	.st1{fill:#00B3F0;}
	.st2{fill:#001A4B;}
	.st3{fill:#FFFFFF;}
	.st4{fill:#FBBB2C;}
	.st5{fill:none;}
	.st6{clip-path:url(#SVGID_2_);fill:#F58220;}
	.st7{clip-path:url(#SVGID_4_);fill:#F58220;}
	.st8{clip-path:url(#SVGID_6_);fill:#F58220;}
	.st9{clip-path:url(#SVGID_8_);fill:#F58220;}
	.st10{clip-path:url(#SVGID_10_);fill:#F58220;}
</style>
<path id="XMLID_116_" class="st0" d="M227-245.8h348.6V446H227V-245.8z"/>
<g id="XMLID_1_">
	<g id="XMLID_2_">
		<path id="XMLID_25_" class="st1" d="M567.3,257.2L417.7,279l66.9,57.9l0.3,109.1l130.9-19.7c0,0,26.1,3.3,53.8-14.1
			c0,0,34.8,14.3,72.8-10.5c0,0,19.7,9.7,56.1-1l115.8-16.9l-0.5-91l-6.9,0.8v-6.1l73.5-90.4l-103,15.6c0,0,33.8-36.6,36.9-77.1
			S900.9-33.7,841-159.7c-8.4-17.6-29.7-53.3-58.7-69.2s-58.4-16.9-74.8-16.9s-55.6-1.5-91.5,28.2S551.2-150,530.4-121
			c-20.8,29-63.8,94-63.8,94s-30.7,38.9-33.1,80.5S446.9,164.1,567.3,257.2z"/>
	</g>
	<g id="XMLID_3_">
		<path id="XMLID_24_" class="st2" d="M478.4,147.2c0,0-0.5-89.9,65.8-157.1c40.1-40.5,138.1-111.2,255.4-118.6
			c0,0,4.1,64.8,32.5,98.4c7.2,8.5,69.2,96.1,47.9,188.6c-1.5,6.5-3.6,23.3-24.6,52.3c0,0,36.9-27.2,42.5-68.7
			c1-7.4,10.5-62-27.7-183.7c-1.3-4.3-36.9-123.8-70.2-153.5c-5.6-5-28.2-28.2-63.8-34.3c-12.1-2.1-62-6.4-93.3,11
			c-14.5,8.1-51.5,33.1-104.8,112.2c-1,1.4-42.3,60.5-48.9,71c-6.7,10.5-38.2,46.1-40.7,88.4C448,65.4,444.3,96.8,478.4,147.2
			L478.4,147.2z"/>
	</g>
	<g id="XMLID_4_">
		<path id="XMLID_23_" class="st2" d="M606,266.9c-66.9-52.8-95.8-144.5-95.8-144.5C531.7,30.4,566.8,1,566.8,1l-5.9,29.5
			c135.3-74.8,216.2-88.9,216.2-88.9l-22,22.8c0,0,65.3,39.2,102.5,98.6c0,0,27.2,156.3-77.4,188.8c-19.4,6-147.6,23.3-147.6,23.3
			S610,270,606,266.9z"/>
	</g>
	<g id="XMLID_5_">
		<path id="XMLID_22_" class="st3" d="M755.4,89.1c0,0,43.6-6.9,51.5-11.5c0,0-11,16.9-37.9,20.2C758.7,99.1,755.4,89.1,755.4,89.1z
			"/>
	</g>
	<g id="XMLID_6_">
		<path id="XMLID_21_" class="st3" d="M685.7,79.3c0,0-50.5-29.7-57.1-36.1c0,0,7.9,23.3,20.5,32C661.6,83.9,673.4,85,685.7,79.3z"
			/>
	</g>
	<path id="XMLID_20_" class="st4" d="M826.4,49.4C821.9,59.7,802,66.6,802,66.6l-0.3-26.1c-14.1,13.1-27.4,14.1-27.4,14.1
		s3.8-13.1-4.1-24.6c-11.6-16.9-26.4,0.3-26.4,0.3c-1.5-9.5,0.8-23.6,0.8-23.6c-15.1,14.9-6.9,60.5-6.9,60.5
		c-39.5-19.2-61.5-53.8-61.5-53.8l5.4,16.1c-25.1-2.3-13.8,27.2-13.8,27.2c-20.8-8.7-32.3-30.3-37-41.6
		c30.3-14.8,67.5-31.4,101.4-42.2C732.1-27.2,797.5,14.5,826.4,49.4L826.4,49.4z"/>
	<path id="XMLID_19_" class="st4" d="M607.3,26.7c-9,31,7.6,50.9,7.6,50.9s-25.8-4.6-39.4-34C582.2,39.9,593.3,33.9,607.3,26.7z"/>
	<path id="XMLID_18_" class="st5" d="M808.2,26.7c-9,31,7.6,50.9,7.6,50.9s-25.8-4.6-39.4-34C783.1,39.9,794.2,33.9,808.2,26.7
		L808.2,26.7z"/>
	<g id="XMLID_7_">
		<path id="XMLID_17_" class="st1" d="M561.7,100.9c0,0,19.2-3.8,32,6.1c12.8,10,26.9,16.1,55.3,5.6s66.1-2.3,66.1-2.3
			s-3.1-25.9,9.2-44.8c0,0-1,34.1,2.3,46.9c0,0,27.2,6.4,43,16.1c15.9,9.7,35.9,9.7,35.9,9.7s4.9,3.8,0.8,8.7
			c-4.1,4.9-5.9,10.5-20,8.7s-33.3-7.4-45.6-2.3c0,0,25.4,5.9,34.6,14.6c0,0-16.7,40-30,49.7c0,0-24.3-3.3-29,1
			c0,0,17.7,4.4,20.8,6.4c1.5,1-20,15.9-35.4,34.1c-13.2,15.6-23.1,1.5-23.1,1.5s-4.9-19,3.6-37.4s26.1-45.9,22-73
			c-4.1-27.2-43.3-24.3-51.8-19.7s-38.4,7.2-50.5-4.4C589.8,114.5,580.1,101.1,561.7,100.9L561.7,100.9z"/>
	</g>
	<g id="XMLID_8_">
		<path id="XMLID_16_" class="st2" d="M498.7,330.2L450,288.4l494.8-71.5l-52.5,65.8l-0.1,27.4l7.2-1.2v62.9l-104.2,15.1
			c0,0-30.7,12.9-54.4-2.3c0,0-32.7,30.7-73.9,10.6c0,0-15.6,21-58.2,16.4v2.4l-109.9,16.1L498.7,330.2L498.7,330.2z"/>
	</g>
	<g id="XMLID_9_">
		<path id="XMLID_10_" class="st3" d="M889.1,248.4l-13.7,17.3l-35.4,4.6v27.4l28.7-3.8v14.9l-28.6,3.8v29.6l36-6v15.1l-56.9,8.7
			V258.9L889.1,248.4z M563.7,332.3v-13.8c0,0-0.3-7.2-9-6.4c-8.7,0.8-11.5,1.2-11.5,1.2V344l11.5-1.5
			C554.8,342.5,563.7,340.7,563.7,332.3z M505.8,304.6L559,297c0,0,23.2-4.1,24.9,14.9c1.7,19,0.4,27.3-12.8,34.2
			c0,0,13.8,1.8,13.8,16.9v30.2l-20.6,3.1V367c0,0-0.3-11-10.4-10c-10.1,1-10.5,1-10.5,1v41.1l-20.1,3.2v-83L505.8,304.6
			L505.8,304.6z M596.3,340.8v-0.3c6.5,0.5,13.5,0.7,20.6,0.9v25.5c0,0-0.6,7.8,9.5,6.7c10.1-1.1,12.2-6.4,12.2-13.3v-18.9
			c7-0.1,13.9-0.3,20.4-0.6v19.6c0,17.3-15,27.4-40.1,29c-20.2,1.2-22.5-19.3-22.5-19.3v-29.3L596.3,340.8z M616.6,328.6l-20.4,2.8
			v-17.7c0,0-0.6-23.3,29.1-28.2c27.5-4.5,33.4,9.9,33.4,16.5v20.6l-20.6,2.8v-18.2c0,0-0.1-8.5-10.2-7.4c-10.1,1-11.1,8.7-11.1,11
			C616.8,313.3,616.6,328.6,616.6,328.6L616.6,328.6z M690.3,317.9l-20.4,2.8V303c0,0-0.6-23.3,29.1-28.2
			c27.5-4.5,33.4,9.9,33.4,16.5v14l-20.6,3v-11.8c0,0-0.1-8.5-10.2-7.4c-10.1,1-11.1,8.7-11.1,11
			C690.4,302.5,690.3,317.9,690.3,317.9L690.3,317.9z M586.7,336.8l145-21.1v34.6c0,0,1.4,25.5-33.4,27.5
			c-30.9,1.8-28.3-19.9-28.3-19.9v-17l21.3-1.3v14.9c0,0-1.5,10.2,10.4,8.7c11.9-1.5,11.1-12.4,11.1-13.8v-16l-11.1,2
			C701.6,335.4,629.3,341.7,586.7,336.8L586.7,336.8z M743.6,270.4v-0.3l20.6-3v78.3c0,0-0.6,7.8,9.5,6.7
			c10.1-1.2,12.2-6.4,12.2-13.3v-74.6l20.4-3.2v77.9c0,17.3-15,27.4-40.1,29c-20.2,1.2-22.5-19.3-22.5-19.3v-78.2H743.6z"/>
	</g>
	<g id="XMLID_29_">
		<g>
			<defs>
				<path id="SVGID_1_" d="M732.1-27.2C698.2-16.4,661,0.2,630.7,15c4.8,11.3,16.3,32.9,37,41.6c0,0-11.3-29.5,13.8-27.2l-5.4-16.1
					c0,0,22,34.6,61.5,53.8c0,0-8.2-45.6,6.9-60.5c0,0-2.3,14.1-0.8,23.6c0,0,14.8-17.1,26.4-0.3c7.9,11.5,4.1,24.6,4.1,24.6
					s13.3-1,27.4-14.1l0.3,26.1c0,0,19.9-6.9,24.4-17.2C797.5,14.5,732.1-27.2,732.1-27.2L732.1-27.2z"/>
			</defs>
			<clipPath id="SVGID_2_">
				<use xlink:href="#SVGID_1_"  style="overflow:visible;"/>
			</clipPath>
			<path id="XMLID_30_" class="st6" d="M644.4,2.6c0,0,1.2,38.7,26.4,55.7l-4.7,2.4l-32.7-20.2l-9.9-30.1L644.4,2.6L644.4,2.6z"/>
		</g>
		<g>
			<defs>
				<path id="SVGID_3_" d="M732.1-27.2C698.2-16.4,661,0.2,630.7,15c4.8,11.3,16.3,32.9,37,41.6c0,0-11.3-29.5,13.8-27.2l-5.4-16.1
					c0,0,22,34.6,61.5,53.8c0,0-8.2-45.6,6.9-60.5c0,0-2.3,14.1-0.8,23.6c0,0,14.8-17.1,26.4-0.3c7.9,11.5,4.1,24.6,4.1,24.6
					s13.3-1,27.4-14.1l0.3,26.1c0,0,19.9-6.9,24.4-17.2C797.5,14.5,732.1-27.2,732.1-27.2L732.1-27.2z"/>
			</defs>
			<clipPath id="SVGID_4_">
				<use xlink:href="#SVGID_3_"  style="overflow:visible;"/>
			</clipPath>
			<path id="XMLID_31_" class="st7" d="M738.2,68.2c0,0-30.7-26.6-34.6-63.3l8.8,11.3c0,0-5-19.9,8.7-44.3l22-7.8l12.7,15.2
				c0,0,13.7,20-14.6,54.1c-1.5,1.8,1.4,37.9,1.4,37.9L738.2,68.2L738.2,68.2z"/>
		</g>
		<g>
			<defs>
				<path id="SVGID_5_" d="M732.1-27.2C698.2-16.4,661,0.2,630.7,15c4.8,11.3,16.3,32.9,37,41.6c0,0-11.3-29.5,13.8-27.2l-5.4-16.1
					c0,0,22,34.6,61.5,53.8c0,0-8.2-45.6,6.9-60.5c0,0-2.3,14.1-0.8,23.6c0,0,14.8-17.1,26.4-0.3c7.9,11.5,4.1,24.6,4.1,24.6
					s13.3-1,27.4-14.1l0.3,26.1c0,0,19.9-6.9,24.4-17.2C797.5,14.5,732.1-27.2,732.1-27.2L732.1-27.2z"/>
			</defs>
			<clipPath id="SVGID_6_">
				<use xlink:href="#SVGID_5_"  style="overflow:visible;"/>
			</clipPath>
			<path id="XMLID_32_" class="st8" d="M763.2,28.1c0,0,19.7-12.2,15.8-25.9c0,0,6.9,12.2,6.1,26.5l-2.3-5.1c0,0-2.4,32.8-14.6,32.5
				C756,55.9,763.2,28.1,763.2,28.1z"/>
		</g>
		<g>
			<defs>
				<path id="SVGID_7_" d="M732.1-27.2C698.2-16.4,661,0.2,630.7,15c4.8,11.3,16.3,32.9,37,41.6c0,0-11.3-29.5,13.8-27.2l-5.4-16.1
					c0,0,22,34.6,61.5,53.8c0,0-8.2-45.6,6.9-60.5c0,0-2.3,14.1-0.8,23.6c0,0,14.8-17.1,26.4-0.3c7.9,11.5,4.1,24.6,4.1,24.6
					s13.3-1,27.4-14.1l0.3,26.1c0,0,19.9-6.9,24.4-17.2C797.5,14.5,732.1-27.2,732.1-27.2L732.1-27.2z"/>
			</defs>
			<clipPath id="SVGID_8_">
				<use xlink:href="#SVGID_7_"  style="overflow:visible;"/>
			</clipPath>
			<path id="XMLID_33_" class="st9" d="M815.7,28.7c0,0,0.8,21.8-2.8,26.3l-3.1-4.6c0,0-6.8,18.2-12,21.5l33.9-10.2l0.5-16.9
				L815.7,28.7L815.7,28.7z"/>
		</g>
	</g>
	<g id="XMLID_35_">
		<g>
			<defs>
				<path id="SVGID_9_" d="M607.3,26.7c-14,7.2-25.1,13.2-31.8,16.9c13.6,29.3,39.4,34,39.4,34S598.4,57.7,607.3,26.7z"/>
			</defs>
			<clipPath id="SVGID_10_">
				<use xlink:href="#SVGID_9_"  style="overflow:visible;"/>
			</clipPath>
			<path id="XMLID_36_" class="st10" d="M590.8,28.4c0,0-4.4,33.3,24.7,50.1c29.1,16.8-35-2.2-35-2.2l-24.9-31.5L590.8,28.4
				L590.8,28.4z"/>
		</g>
	</g>
</g>
</svg>
